<svg class="DownloadTheApp_icon__oFlg0 IconPadding_footnoteIcon__lrgO2" width="32" height="32" viewBox="0 0 32 32" fill="none" xmlns="http://www.w3.org/2000/svg"><g clip-path="url(#clip0_3820_14769)"><path fill-rule="evenodd" clip-rule="evenodd" d="M9.15673 0L22.8433 0C26.0273 0 27.1819 0.33152 28.3459 0.954045C29.5099 1.57657 30.4234 2.4901 31.046 3.65412C31.6685 4.81814 32 5.97274 32 9.15673V22.8433C32 26.0273 31.6685 27.1819 31.046 28.3459C30.4234 29.5099 29.5099 30.4234 28.3459 31.046C27.1819 31.6685 26.0273 32 22.8433 32H9.15673C5.97274 32 4.81814 31.6685 3.65412 31.046C2.4901 30.4234 1.57657 29.5099 0.954045 28.3459C0.33152 27.1819 0 26.0273 0 22.8433L0 9.15673C0 5.97274 0.33152 4.81814 0.954045 3.65412C1.57657 2.4901 2.4901 1.57657 3.65412 0.954045C4.81814 0.33152 5.97274 0 9.15673 0Z" fill="#D7A569"></path><g clip-path="url(#clip1_3820_14769)"><path d="M28.5921 16.6647L29.4785 16.7105C29.2583 21.0062 26.9675 24.9755 23.3515 27.3283L23.0737 26.9003L22.0695 25.3729L22.8112 24.8856L23.5916 26.0741C25.8419 24.3722 27.4521 21.9655 28.1776 19.2737L26.7652 18.9474C26.3723 20.384 25.6881 21.7398 24.7621 22.914L25.2782 23.3554L24.7019 24.0306L23.0126 22.5867L23.5889 21.9124L24.086 22.3377C24.9203 21.2723 25.5389 20.046 25.8985 18.7487L24.4807 18.4214C23.9808 20.1719 22.9442 21.7416 21.5103 22.8933L22.3311 24.1412L21.5894 24.6284L20.5429 23.0353L20.5492 23.0317L20.3127 22.6667C22.4426 21.284 23.792 18.9492 23.9215 16.4219L24.808 16.4678C24.7891 16.8355 24.7468 17.1987 24.6821 17.5565L28.3763 18.4097C28.4887 17.837 28.5624 17.2545 28.5921 16.6647ZM21.6829 9.25113C21.4051 9.01738 21.1138 8.79981 20.8108 8.60292L20.3271 9.34643C21.2522 9.9488 22.0596 10.7561 22.6619 11.6813L23.4055 11.1976C23.0935 10.7184 22.7321 10.2689 22.332 9.85619L23.3245 8.79532C24.558 10.0468 25.4418 11.5752 25.9066 13.26L24.4915 13.5863C24.3369 13.0424 24.1301 12.5129 23.8694 12.0022L23.0782 12.405C23.5844 13.3984 23.8703 14.4683 23.9278 15.5858L24.8143 15.54C24.7954 15.1723 24.754 14.809 24.6902 14.4512L28.3862 13.598C28.4959 14.1698 28.5678 14.7524 28.5975 15.3422L29.4839 15.2963C29.3859 13.3903 28.8977 11.5653 28.0329 9.87148L27.2426 10.2751C27.6463 11.0654 27.9618 11.8862 28.1875 12.7331L26.7706 13.0604C26.2653 11.2039 25.2917 9.51995 23.9296 8.1471L24.9203 7.08893C25.5434 7.71197 26.1026 8.39974 26.58 9.13426L27.3235 8.65057C26.2995 7.07724 24.9275 5.70529 23.3551 4.68217L22.8714 5.42569C23.3605 5.74395 23.828 6.09907 24.2712 6.48477L21.6829 9.25113ZM20.1113 27.9297L19.0028 24.3039C19.3454 24.1807 19.6816 24.0351 20.0089 23.8678L19.6052 23.0776C17.3513 24.2284 14.655 24.2275 12.393 23.074L12.1952 23.4615L12.188 23.4579L11.3321 25.1607L12.1251 25.5599L12.7958 24.2248C13.8261 24.6257 14.9157 24.8271 16.0054 24.8271C16.7273 24.8271 17.4493 24.7381 18.1541 24.5619L18.5794 25.9536C17.2757 26.2917 15.9047 26.3681 14.5651 26.1784L14.6847 25.5347L13.8126 25.3729L13.4071 27.5566L14.2801 27.7185L14.4042 27.0514C14.9355 27.1287 15.4723 27.1674 16.009 27.1674C16.9647 27.1674 17.9186 27.0451 18.841 26.8023L19.2644 28.1878C16.5709 28.9052 13.6814 28.7146 11.0822 27.6169L11.7205 26.3465L10.9276 25.9473L10.1067 27.5809H10.1076L9.87658 28.0349C11.7987 29.0122 13.9043 29.5004 16.009 29.5004C18.1155 29.5004 20.2192 29.0113 22.136 28.0322L21.7323 27.242C21.2037 27.5117 20.6625 27.74 20.1113 27.9297ZM3.66326 13.3598L3.66506 13.3625L7.45095 11.6057L8.13423 11.9968C7.57772 13.0865 7.24597 14.2921 7.18124 15.5409L8.0677 15.5867C8.19806 13.0595 9.54663 10.7247 11.6765 9.34194L11.1937 8.59753C10.1319 9.2862 9.24545 10.1888 8.57656 11.2281L7.89328 10.8371L7.52108 6.65648H7.51568C8.01735 6.20246 8.55678 5.7871 9.12678 5.4176L8.64399 4.67318C7.84024 5.19373 7.09223 5.79969 6.42064 6.47488C5.76704 7.13298 5.17816 7.863 4.672 8.64338L5.41641 9.12617C5.7976 8.53909 6.22915 7.98258 6.70294 7.46742L7.00233 10.8371L3.95456 12.2513C4.16673 11.5698 4.43555 10.9054 4.75831 10.2707L3.96714 9.86878C3.54099 10.7067 3.20115 11.5941 2.95751 12.5039C2.71387 13.4119 2.56463 14.3496 2.51428 15.2882L3.39984 15.3359C3.43581 14.6724 3.52391 14.0107 3.66326 13.3598ZM10.3117 22.7539C10.5895 22.9886 10.8826 23.207 11.1919 23.4075L11.6747 22.6631C9.55113 21.2867 8.20346 18.951 8.0713 16.4147L7.63706 16.4372V16.43L4.33755 16.6206L4.3888 17.5071L7.27564 17.3399C7.55524 19.1577 8.39765 20.8399 9.66261 22.148L7.07605 24.9224C4.90215 22.7422 3.56707 19.8015 3.39984 16.6683L2.51428 16.715C2.74444 21.0233 5.03611 24.9917 8.64579 27.3301L9.12858 26.5848C8.6332 26.2638 8.1648 25.9096 7.72516 25.5266L10.3117 22.7539ZM11.5353 4.20388L12.7526 7.79198C12.4937 7.89357 12.2393 8.00865 11.9893 8.13542L12.393 8.92568C14.6469 7.7749 17.3432 7.7758 19.6052 8.92838L20.008 8.13811C19.7625 8.01315 19.5108 7.89987 19.2572 7.79917L20.4782 4.20298C20.9016 4.36481 21.3197 4.55001 21.7287 4.75859L22.1324 3.96833C20.4323 3.10075 18.6072 2.61167 16.7084 2.51367L16.6626 3.40013C17.6803 3.45228 18.6747 3.62669 19.6384 3.91709L18.4175 7.51507C17.7738 7.33257 17.113 7.22378 16.4504 7.18872V5.73136C16.8397 5.74845 17.229 5.78621 17.6147 5.84734L17.7531 4.97077C16.5961 4.78736 15.421 4.78826 14.2594 4.97257L14.3988 5.84914C14.7854 5.788 15.1738 5.74934 15.5631 5.73226V7.18782C14.8987 7.22019 14.2379 7.32717 13.5941 7.50788L12.3768 3.91978C13.3424 3.63029 14.3431 3.45408 15.3437 3.40013L15.296 2.51367C13.4224 2.61347 11.5479 3.11603 9.87479 3.96653L10.2776 4.75769C10.6839 4.55091 11.1056 4.36661 11.5353 4.20388Z" fill="black"></path></g></g><defs><clipPath id="clip0_3820_14769"><rect width="32" height="32" fill="white"></rect></clipPath><clipPath id="clip1_3820_14769"><rect width="26.9714" height="26.9714" fill="white" transform="translate(2.51428 2.51367)"></rect></clipPath></defs></svg>